<svg width="1120" height="314" viewBox="0 0 1120 314" fill="none" xmlns="http://www.w3.org/2000/svg">
<rect width="1120" height="314" rx="30" fill="#F0FCFC"/>
<mask id="mask0" mask-type="alpha" maskUnits="userSpaceOnUse" x="0" y="0" width="1120" height="314">
<rect width="1120" height="314" rx="30" fill="#F0FCFC"/>
</mask>
<g mask="url(#mask0)">
<path fill-rule="evenodd" clip-rule="evenodd" d="M1105.03 -54.8906C1120.37 -42.2048 1138.35 -32.9865 1154.5 -21.3898C1158.54 -18.4872 1171.34 -12.137 1170.85 -7.33972C1170.57 -4.53484 1166.35 -1.30237 1164.47 0.517701C1161.25 3.63556 1158.21 6.80136 1155.21 10.1292C1141.46 25.3687 1128.43 40.8146 1113.69 55.1649C1111.47 57.3232 1104.49 67.895 1102.9 62.2722C1102.18 59.7229 1103.13 56.9876 1100.94 54.4997C1099.82 53.2183 1095.19 52.2168 1096.74 49.7596C1097.62 50.2352 1098.5 50.712 1099.38 51.1866C1098.82 49.0909 1099.04 46.8557 1098.12 44.8459C1097.55 43.5972 1096.31 42.9347 1095.96 41.5503C1095.48 39.6374 1096.69 37.5442 1096.65 35.6062C1096.62 33.674 1095.76 31.7863 1095.3 29.9315C1092.57 18.9369 1092.1 8.02146 1091.11 -3.18775C1090.13 -14.2793 1088.14 -25.1007 1087.86 -36.2631C1087.57 -48.0534 1087.01 -59.8391 1085.98 -71.5895C1089.31 -70.8701 1091.63 -67.025 1093.86 -64.7838C1097.36 -61.2614 1101.2 -58.053 1105.03 -54.8906ZM1084.01 57.5018C1083.28 56.8387 1082.73 56.049 1082.36 55.134C1090.58 51.7881 1085.3 58.1396 1084.01 57.5018ZM1079.8 48.7668C1076.27 49.4655 1073.77 49.4759 1071.21 47.8571C1070.97 47.7041 1071.34 46.6856 1070.9 46.4387C1070.51 46.2242 1069.89 46.4086 1069.56 46.2097C1068.44 45.5338 1066.31 46.6782 1066.28 44.4032C1070.79 43.3774 1075.32 41.2046 1080.01 41.1272C1086.52 41.0208 1085.74 47.5894 1079.8 48.7668ZM1065.61 34.6227C1060.81 35.3788 1056.73 37.6696 1051.77 36.628C1047.11 35.6519 1043.2 32.9112 1039.7 29.8268C1049.18 27.8811 1058.95 28.123 1068.41 26.2625C1071.49 25.657 1075.62 23.7664 1078.81 24.8854C1082.36 26.1292 1082.34 29.5333 1083.19 32.6955C1077.33 33.3108 1071.44 33.705 1065.61 34.6227ZM1037.07 19.373C1032.45 20.1224 1027.65 22.1494 1024.16 17.7844C1023.59 17.08 1023.01 17.6989 1023.23 15.673C1023.47 13.5366 1025.51 12.2998 1027.24 11.6686C1031.3 10.1851 1036.73 11.7365 1040.92 11.7828C1047.61 11.8583 1054.5 10.9726 1061.16 10.3913C1065.78 9.98948 1070.61 8.69884 1075.25 9.36467C1078.83 9.87896 1082.95 13.2661 1077.54 15.1182C1072.61 16.806 1065.47 15.9664 1060.23 16.4687C1052.48 17.2112 1044.75 18.124 1037.07 19.373ZM1034.21 -2.27482C1034.48 -1.95401 1034.75 -1.63323 1035.02 -1.31242C1034.97 -1.32728 1036.87 -2.6423 1037.34 -2.64928C1039.66 -2.68013 1041.95 -2.35203 1044.27 -2.31263C1049.59 -2.22185 1055 -2.75241 1060.28 -3.38673C1064.59 -3.90349 1069.01 -5.014 1073.35 -4.33493C1077.11 -3.74751 1077.45 -2.9437 1077.43 0.722651C1067.78 0.0129293 1057.86 -0.921377 1048.22 0.423672C1041.95 1.29853 1034.86 4.75676 1032.29 -2.60669C1032.93 -2.49604 1033.57 -2.38547 1034.21 -2.27482ZM1041.38 -17.2762C1043.63 -15.2779 1050.38 -17.8286 1053.27 -17.9203C1056.41 -18.021 1059.36 -18.1476 1062.44 -18.7013C1065.17 -19.1932 1074.27 -21.9813 1076.08 -18.5412C1078.86 -13.2706 1066.05 -13.283 1064.01 -13.1821C1055.46 -12.7585 1046.6 -12.4768 1038.2 -10.8611C1039.26 -12.9991 1040.32 -15.1371 1041.38 -17.2762ZM1054.26 -33.5377C1054.7 -31.1628 1074.49 -38.3372 1074.38 -32.0732C1074.3 -27.2671 1054.9 -26.2964 1051.47 -26.9707C1052.45 -29.1151 1054.74 -30.9304 1054.26 -33.5377ZM1061.76 -47.7058C1062.52 -52.374 1063.15 -52.3006 1066.95 -52.4661C1069.84 -52.5923 1073.92 -53.9865 1072.79 -48.9198C1071.83 -44.5814 1061.01 -42.9948 1061.76 -47.7058ZM1069.8 -63.3676C1070.89 -65.8233 1072.68 -62.278 1072.63 -60.9922C1072.5 -57.5705 1069.96 -58.4993 1067.47 -58.6825C1068.28 -60.2258 1069.06 -61.7897 1069.8 -63.3676ZM1102.73 -79.9824C1102.26 -80.6318 1099.43 -81.0753 1098.64 -81.4319C1096.7 -82.3104 1097.09 -83.8489 1094.43 -82.4989C1094.31 -82.637 1094.64 -83.7753 1094.5 -83.8386C1094.43 -83.8709 1092.69 -84.6777 1092.14 -85.0931C1090.8 -86.0951 1089.6 -87.0677 1088.4 -88.2905C1087.11 -89.5893 1085.87 -91.4291 1084.37 -92.4984C1083.74 -92.949 1083.24 -93.5589 1082.46 -93.7405C1080.42 -94.2108 1080.9 -92.7288 1079.07 -92.5759C1077.95 -92.4816 1077.24 -93.8396 1075.74 -93.3865C1074.45 -92.9957 1073.59 -91.2868 1072.95 -90.279C1070.64 -86.6112 1068.76 -82.6179 1066.49 -78.9063C1054.84 -59.927 1041.86 -41.7986 1030.53 -22.6116C1025.07 -13.3684 1019.4 -4.07376 1015.3 5.87484C1012.34 13.0501 1006.11 23.3906 1010.25 31.0826C1013.27 36.6751 1019.93 39.4839 1025.18 42.4656C1033.09 46.9524 1040.27 52.5845 1048.28 56.9594C1057.83 62.1764 1067.07 67.5791 1076.33 73.3017C1080.28 75.7423 1083.76 79.095 1087.71 81.4217C1090.12 82.8445 1094.14 81.0151 1094.75 83.9148C1098.16 80.345 1103.06 83.2523 1106.88 80.8433C1109.13 79.4264 1110.92 76.4406 1112.84 74.6328C1115.73 71.923 1118.83 69.44 1121.76 66.7849C1133.42 56.2387 1144.27 45.1606 1155.01 33.7026C1165.27 22.7608 1177.06 12.5778 1185.94 0.427749C1189.46 -4.39533 1190.42 -9.65449 1188.75 -15.3921C1187.53 -19.5777 1184.33 -25.9984 1178.9 -23.6855C1181.12 -26.8322 1173.73 -30.9108 1171.46 -31.7251C1171.43 -31.7367 1170.78 -29.2411 1170.14 -29.3519C1170.37 -29.3124 1168.61 -35.0987 1167.71 -35.8905C1165.03 -38.2455 1161.76 -41.0037 1158.8 -42.9984C1156.08 -44.8274 1153.14 -45.8505 1150.52 -47.8661C1147.35 -50.3085 1144.49 -53.1396 1141.3 -55.5682C1138.22 -57.9127 1134.81 -60.6684 1131.34 -62.3797C1128.34 -63.8641 1125.58 -64.3147 1122.94 -66.5791C1119.69 -69.3809 1116.81 -71.3307 1112.96 -73.3788C1109.64 -75.1503 1104.97 -76.8275 1102.73 -79.9824Z" fill="#D8E8EA"/>
<path fill-rule="evenodd" clip-rule="evenodd" d="M754.694 147.643C752.941 147.002 750.773 145.75 748.825 146.177C746.754 146.63 745.921 148.704 744.415 149.951C740.322 153.341 737.938 148.288 735.69 145.519C733.566 142.905 730.974 142.27 727.978 143.877C726.784 144.517 721.754 147.452 722.631 149.332C723.262 150.685 725.747 149.47 726.594 149.175C728.435 148.534 730.143 147.974 732.025 148.907C735.556 150.658 736.472 155.459 740.743 156.207C745.159 156.982 745.304 152.779 748.456 151.197C750.569 150.137 752.041 152.014 754.079 151.64C756.022 151.284 756.92 148.457 754.694 147.643Z" fill="#D8E8EA"/>
<path fill-rule="evenodd" clip-rule="evenodd" d="M719.037 164.582C720.599 164.921 721.619 161.891 722.597 161.123C724.219 159.849 727.031 159.592 728.682 160.875C731.907 163.377 730.796 168.78 735.388 170.188C739.492 171.447 741.426 166.041 744.881 164.695C746.89 163.912 749.095 163.4 748.311 160.592C747.77 158.65 746.175 158.151 744.441 158.897C741.461 160.178 740.449 165.396 736.916 165.489C733.261 165.586 732.864 160.316 731.295 158.021C728.903 154.523 723.985 153.678 721.19 157.023C720.346 158.032 716.062 163.938 719.037 164.582Z" fill="#D8E8EA"/>
<path fill-rule="evenodd" clip-rule="evenodd" d="M809.402 307.833C809.663 307.222 809.924 306.611 810.185 306.001C810.509 307.066 810.599 307.595 809.402 307.833ZM809.75 310.655C809.183 310.756 809.407 308.988 809.407 308.68C810.385 309.231 809.575 309.892 809.75 310.655ZM808.867 305.556C809.35 305.272 809.832 304.988 810.315 304.705C809.643 305.944 809.907 305.17 810.184 305.997C809.677 306.142 809.184 305.973 808.867 305.556ZM806.005 315.242C804.196 321.775 798.447 326.927 792.375 329.596C788.886 331.129 785.456 331.512 781.688 331.341C780.235 331.275 778.525 330.806 777.127 330.893C776.05 330.961 776.099 331.007 775.207 331.914C774.812 331.191 775.098 330.684 774.306 330.263C773.319 329.738 772.909 330.349 772.419 331.076C771.778 330.415 771.516 330.07 770.685 329.677C770.711 329.69 769.89 329.659 769.923 329.669C769.775 329.624 768.881 329.052 768.602 328.948C767.454 328.52 766.127 328.344 765.068 327.729C764.142 327.193 763.379 325.686 762.319 326.844C762.318 324.91 759.699 324.107 758.471 323.094C756.553 321.511 755.028 319.167 754.071 316.9C753.052 314.482 752.711 312.164 752.234 309.672C751.901 307.931 749.717 305.414 751.028 303.657C751.341 304.394 751.194 305.148 751.713 305.816C752.18 304.921 752.437 303.919 752.648 302.94C752.751 302.46 753.352 301.051 753.284 300.633C753.145 299.778 752.08 299.731 752.671 298.682C753.895 300.008 754.883 297.68 753.958 296.753C753.501 297.265 753.334 297.847 753.123 298.482C751.919 296.064 755.251 296.843 754.522 294.66C755.738 294.428 756.437 294.123 756.899 292.928C757.413 291.598 757.035 291.308 758.202 290.429C758.604 290.127 759.74 289.693 759.947 289.196C760.349 288.235 759.326 287.951 760.222 287.051C760.525 287.579 761.705 288.625 762.35 287.63C762.48 287.431 761.937 287.29 762.332 286.833C762.917 286.157 763.571 285.494 764.561 285.636C763.777 283.687 768.784 283.533 770.066 283.073C771.351 282.613 772.441 282.31 773.804 282.203C775.165 282.097 775.233 281.7 776.385 280.885C776.483 282.051 776.765 281.795 777.598 282C777.799 281.658 778.004 281.62 778.214 281.885C778.423 282.083 778.679 282.176 778.981 282.165C779.439 282.188 779.958 282.129 780.437 282.139C781.563 282.161 782.725 282.067 783.829 282.091C784.114 282.044 784.38 281.945 784.629 281.795C784.733 281.99 784.838 282.186 784.942 282.381C785.527 282.454 785.572 283.184 786.291 282.386C786.504 283.4 787.116 282.872 787.762 283.147C788.352 283.399 788.446 283.8 788.989 284.08C789.347 284.369 789.731 284.407 790.141 284.195C790.53 284.483 790.926 284.762 791.328 285.033C792.068 285.449 792.94 285.703 793.72 286.032C794.239 286.244 794.754 286.466 795.266 286.695C795.281 287.31 795.558 287.526 796.096 287.346C796.582 287.75 796.719 287.735 797.19 288.423C798.259 289.985 799.207 291.198 800.556 292.593C806.421 298.66 808.223 307.237 806.005 315.242ZM807.805 289.445C805.157 285.917 801.409 281.877 798.041 279.649C796.334 278.52 793.938 276.492 791.85 275.895C791.355 275.753 790.843 275.744 790.356 275.595C789.98 275.48 789.776 275.096 789.347 275.027C789.047 274.979 789.014 275.646 788.696 275.585C788.03 275.456 787.608 274.799 787.138 274.388C786.128 276.119 785.579 273.207 784.096 275.165C782.331 272.411 778.185 273.013 775.366 273.152C774.531 273.193 774.138 273.489 773.397 273.708C772.707 273.912 772.639 273.86 771.886 273.854C770.01 273.84 768.345 274.074 766.611 274.894C763.698 276.27 761.025 278.415 758.258 280.074C755.166 281.928 752.379 284.288 750.013 286.999C741.462 296.804 739.175 311.115 745.994 322.481C756.825 340.533 784.762 342.462 800.593 330.214C812.824 320.75 817.478 302.328 807.805 289.445Z" fill="#D8E8EA"/>
</g>
</svg>
