<svg width="64" height="64" viewBox="0 0 64 64" fill="none" xmlns="http://www.w3.org/2000/svg">
<circle cx="32" cy="32" r="32" fill="#F0FFFF"/>
<path d="M32 22V44" stroke="#51C4D3" stroke-width="2" stroke-linecap="round" stroke-linejoin="round"/>
<path d="M37 26H29.5C28.5717 26 27.6815 26.3687 27.0251 27.0251C26.3687 27.6815 26 28.5717 26 29.5C26 30.4283 26.3687 31.3185 27.0251 31.9749C27.6815 32.6313 28.5717 33 29.5 33H34.5C35.4283 33 36.3185 33.3687 36.9749 34.0251C37.6313 34.6815 38 35.5717 38 36.5C38 37.4283 37.6313 38.3185 36.9749 38.9749C36.3185 39.6313 35.4283 40 34.5 40H26" stroke="#51C4D3" stroke-width="2" stroke-linecap="round" stroke-linejoin="round"/>
</svg>
